HIERARCHY
ROOT Hips
{
	OFFSET -3.958830 18.904000 13.208200
	CHANNELS 6 Xposition Yposition Zposition Zrotation Yrotation Xrotation 
	JOINT LHipJoint
	{
		OFFSET 0.000000 0.000000 0.000000
		CHANNELS 3 Zrotation Yrotation Xrotation
		JOINT LeftUpLeg
		{
			OFFSET 1.800000 -1.400000 0.085000
			CHANNELS 3 Zrotation Yrotation Xrotation
			JOINT LeftLeg
			{
				OFFSET 2.215000 -6.000000 0.000000
				CHANNELS 3 Zrotation Yrotation Xrotation
				JOINT LeftFoot
				{
					OFFSET 2.500000 -6.900000 0.000000
					CHANNELS 3 Zrotation Yrotation Xrotation
					JOINT LeftToeBase
					{
						OFFSET 0.200000 -0.500000 1.950000
						CHANNELS 3 Zrotation Yrotation Xrotation
						End Site
						{
							OFFSET 0.000000 0.000000 0.000000
						}
					}
				}
			}
		}
	}
	JOINT RHipJoint
	{
		OFFSET 0.000000 0.000000 0.000000
		CHANNELS 3 Zrotation Yrotation Xrotation
		JOINT RightUpLeg
		{
			OFFSET -1.800000 -1.400000 0.085000
			CHANNELS 3 Zrotation Yrotation Xrotation
			JOINT RightLeg
			{
				OFFSET -2.215000 -6.000000 0.000000
				CHANNELS 3 Zrotation Yrotation Xrotation
				JOINT RightFoot
				{
					OFFSET -2.500000 -6.900000 0.000000
					CHANNELS 3 Zrotation Yrotation Xrotation
					JOINT RightToeBase
					{
						OFFSET -0.200000 -0.500000 1.950000
						CHANNELS 3 Zrotation Yrotation Xrotation
						End Site
						{
							OFFSET 0.000000 0.000000 0.000000
						}
					}
				}
			}
		}
	}
	JOINT LowerBack
	{
		OFFSET 0.000000 0.000000 0.000000
		CHANNELS 3 Zrotation Yrotation Xrotation
		JOINT Spine
		{
			OFFSET -0.087000 1.940000 -0.288900
			CHANNELS 3 Zrotation Yrotation Xrotation
			JOINT Spine1
			{
				OFFSET 0.000000 1.950000 0.060000
				CHANNELS 3 Zrotation Yrotation Xrotation
				JOINT Neck
				{
					OFFSET 0.000000 0.000000 0.000000
					CHANNELS 3 Zrotation Yrotation Xrotation
					JOINT Neck1
					{
						OFFSET 0.000000 1.600000 0.340000
						CHANNELS 3 Zrotation Yrotation Xrotation
						JOINT Head
						{
							OFFSET 0.000000 1.667000 -0.240000
							CHANNELS 3 Zrotation Yrotation Xrotation
							End Site
							{
								OFFSET 0.000000 0.000000 0.000000
							}
						}
					}
				}
				JOINT LeftShoulder
				{
					OFFSET 0.000000 0.000000 0.000000
					CHANNELS 3 Zrotation Yrotation Xrotation
					JOINT LeftArm
					{
						OFFSET 2.700000 1.550000 -0.730000
						CHANNELS 3 Zrotation Yrotation Xrotation
						JOINT LeftForeArm
						{
							OFFSET 5.450000 0.000000 0.000000
							CHANNELS 3 Zrotation Yrotation Xrotation
							JOINT LeftHand
							{
								OFFSET 3.450000 0.000000 0.000000
								CHANNELS 3 Zrotation Yrotation Xrotation
								JOINT LeftHandIndex1
								{
									OFFSET 0.750000 0.000000 0.000000
									CHANNELS 3 Zrotation Yrotation Xrotation
									End Site
									{
										OFFSET 0.000000 0.000000 0.000000
									}
								}
							}
						}
					}
				}
				JOINT RightShoulder
				{
					OFFSET 0.000000 0.000000 0.000000
					CHANNELS 3 Zrotation Yrotation Xrotation
					JOINT RightArm
					{
						OFFSET -2.700000 1.550000 -0.730000
						CHANNELS 3 Zrotation Yrotation Xrotation
						JOINT RightForeArm
						{
							OFFSET -5.450000 0.000000 0.000000
							CHANNELS 3 Zrotation Yrotation Xrotation
							JOINT RightHand
							{
								OFFSET -3.450000 0.000000 0.000000
								CHANNELS 3 Zrotation Yrotation Xrotation
								JOINT RightHandIndex1
								{
									OFFSET -0.750000 0.000000 0.000000
									CHANNELS 3 Zrotation Yrotation Xrotation
									End Site
									{
										OFFSET 0.000000 0.000000 0.000000
									}
								}
							}
						}
					}
				}
			}
		}
	}
}
MOTION
Frames: 6
Frame Time: 0.016667
0.284390 15.974870 -1.517100 0.632763 13.106250 3.790693 -15.050483 12.830317 2.728741 2.497706 -2.939327 -17.004692 -7.347496 7.136747 22.700650 -0.982547 5.617341 3.009729 0.585790 -0.064640 0.180510 18.447007 -11.158051 2.601504 -4.868731 2.662958 -23.544349 6.584272 -6.370861 22.712635 -0.038066 -4.137321 3.172519 0.373320 0.915480 0.395030 -4.227646 -0.338303 -6.534666 12.104801 -0.919481 3.557144 -7.148543 -0.117634 9.714170 2.437810 -1.039701 -6.636952 -0.365853 -7.267635 17.149595 -3.884770 -8.498810 -2.933970 -23.279336 1.206688 1.632028 -41.591553 6.435237 -3.843669 -104.556889 -65.978440 67.446255 -4.402996 3.537597 0.348570 0.654210 -0.616920 0.515910 18.259241 -1.446945 5.031999 38.448572 -12.106313 -6.503588 96.071346 53.594290 42.960574 1.433163 -2.358641 -0.490450 0.502310 0.160600 -0.283020 
0.308700 15.884270 -1.546690 0.329821 13.794679 2.829710 -15.026480 12.755562 2.781218 3.179793 -3.405928 -17.829358 -7.756251 8.029377 26.256414 -0.864589 6.137137 2.787715 0.561090 -0.104760 0.210240 18.478671 -11.030083 2.788159 -5.650679 3.615713 -27.599646 6.647308 -8.082236 31.130735 -0.224209 -5.084986 2.799042 0.320200 0.847540 0.368420 -4.323213 -0.366103 -6.813482 13.065554 -1.570365 6.120373 -8.294799 -0.343655 7.986360 2.774869 -1.049416 -6.251348 -0.566259 -7.514703 18.066875 -3.599810 -8.450590 -3.922330 -25.890820 0.451850 1.097907 -40.120596 5.407383 -4.090969 -100.123596 -67.342052 64.813137 -4.376149 3.423981 0.419550 0.584700 -0.563170 0.483810 19.958608 -0.856517 5.004359 38.122436 -12.099168 -7.390403 88.477838 53.287531 37.593282 1.480045 -2.271250 -0.494130 0.496560 0.156190 -0.308300 
0.326460 15.798680 -1.571890 -0.006860 14.589713 1.382654 -15.022284 12.621087 2.812093 3.892873 -3.973912 -18.403679 -7.970855 9.070994 30.425100 -0.709213 6.813312 2.511707 0.532370 -0.157030 0.241350 18.513457 -10.735031 3.128087 -7.442347 4.635066 -31.748999 7.782289 -10.821165 40.140636 -0.547626 -6.594084 2.257690 0.254170 0.770560 0.336350 -4.382382 -0.516318 -7.235117 13.696160 -2.353430 9.452953 -9.160806 -0.645733 5.992693 3.074497 -0.954733 -5.954069 -0.769360 -7.691962 19.624013 -2.952750 -8.447630 -5.154340 -28.282693 -0.225524 0.599280 -38.787784 4.346391 -4.300407 -96.137687 -68.585980 62.622430 -4.325795 3.318217 0.508360 0.501340 -0.505010 0.445470 21.525530 -0.359541 4.989011 37.915841 -12.211353 -8.356332 81.486452 53.164236 33.326497 1.523252 -2.161775 -0.499640 0.491050 0.157030 -0.340430 
0.344120 15.720200 -1.604690 -0.432325 14.599794 -0.697976 -15.018306 12.468149 2.829593 4.796210 -4.413863 -18.293982 -8.463840 10.342152 34.471782 -0.505004 7.561879 2.191993 0.532680 -0.176970 0.299320 18.550898 -10.368563 3.561720 -9.621271 5.670675 -35.515043 8.990990 -14.022336 48.835307 -0.995382 -8.275512 1.679573 0.181630 0.637640 0.330600 -4.420183 -0.693772 -7.751536 14.363036 -3.135147 13.831001 -10.242834 -0.813475 3.929791 3.546128 -0.720810 -5.935910 -1.001228 -7.460564 22.399322 -1.767430 -8.068080 -7.832350 -30.079203 -1.030770 0.308674 -37.990437 3.319635 -4.791990 -89.785053 -69.406042 57.980246 -4.192717 3.296953 0.639590 0.373610 -0.384610 0.402740 22.176247 0.340168 5.065247 38.643425 -11.754877 -9.464782 74.506413 52.641779 29.258260 1.577605 -2.033737 -0.470560 0.454810 0.142030 -0.376270 
0.359810 15.654320 -1.649960 -1.115786 14.532044 -3.600052 -15.017555 12.397606 2.817644 5.770765 -4.719420 -17.493174 -8.512689 11.442258 38.195340 -0.300737 8.239111 1.915976 0.543410 -0.189430 0.365350 18.571131 -10.006367 3.986598 -11.797267 6.494446 -38.342554 10.254656 -17.505353 56.648907 -1.480203 -9.901144 1.185589 0.107340 0.493240 0.304600 -4.428932 -0.978212 -8.247545 15.303095 -4.299706 19.181498 -11.383317 -1.189710 1.738869 3.921407 -0.892553 -6.206134 -2.204021 -6.985466 26.654188 -0.218410 -7.894880 -11.046630 -31.652448 -2.245483 0.190885 -37.060658 2.211887 -5.437057 -82.821297 -69.603706 52.619137 -3.987119 3.311552 0.787660 0.226730 -0.261050 0.365290 22.809980 1.821299 5.466862 39.370431 -11.209974 -10.647458 68.667172 52.710636 26.417867 1.639890 -1.888296 -0.446090 0.429140 0.113270 -0.415940 
0.377260 15.600890 -1.697340 -2.094215 14.219228 -6.732920 -15.014441 12.379463 2.761878 6.962683 -4.839736 -16.367940 -8.288584 12.310841 41.204550 -0.129775 8.807826 1.695239 0.547220 -0.199750 0.411330 18.589031 -9.695860 4.334272 -13.523831 7.208911 -40.342153 11.169377 -20.677684 63.097369 -1.909015 -11.271403 0.809730 0.051520 0.386330 0.283660 -4.433613 -1.256098 -8.597122 16.510843 -5.569818 24.162499 -12.433701 -1.624769 0.012373 4.225493 -1.224590 -6.595898 -3.786831 -6.244325 31.494999 0.949600 -7.700870 -13.452970 -33.758193 -3.950793 0.367575 -35.838184 1.580776 -6.094555 -80.842569 -70.371749 51.579412 -3.844140 3.285533 0.897370 0.117640 -0.166250 0.335580 24.186612 3.854227 6.054249 39.508953 -11.039562 -11.869521 63.105173 54.064799 24.498161 1.677298 -1.765469 -0.427590 0.416470 0.094910 -0.444540 
